HIERARCHY
ROOT Hips
{
	OFFSET 0.000000 100.481300 0.000000
	CHANNELS 6 Xposition Yposition Zposition Xrotation Yrotation Zrotation 
	JOINT Spine
	{
		OFFSET -0.279200 12.230698 -2.892100
		CHANNELS 3 Xrotation Yrotation Zrotation
		JOINT Spine1
		{
			OFFSET -0.232667 10.192268 -1.242267
			CHANNELS 3 Xrotation Yrotation Zrotation
			JOINT Spine1_split
			{
				OFFSET -0.232667 10.192268 -1.242267
				CHANNELS 3 Xrotation Yrotation Zrotation
				JOINT Spine2
				{
					OFFSET -0.232667 10.192268 -1.242267
					CHANNELS 3 Xrotation Yrotation Zrotation
					JOINT Neck
					{
						OFFSET -0.418800 17.814194 8.416900
						CHANNELS 3 Xrotation Yrotation Zrotation
						JOINT Head
						{
							OFFSET 0.000000 7.031097 3.806800
							CHANNELS 3 Xrotation Yrotation Zrotation
							JOINT HeadTop_End
							{
								OFFSET 0.000000 24.646606 12.978600
								CHANNELS 3 Xrotation Yrotation Zrotation
								End Site
								{
									OFFSET 0.000000 0.000000 0.000000
								}
							}
						}
					}
					JOINT LeftShoulder
					{
						OFFSET 8.476499 7.247704 -3.868750
						CHANNELS 3 Xrotation Yrotation Zrotation
						JOINT LeftShoulder_split
						{
							OFFSET 8.476499 7.247704 -3.868750
							CHANNELS 3 Xrotation Yrotation Zrotation
							JOINT LeftArm
							{
								OFFSET 9.308998 -2.777710 0.208600
								CHANNELS 3 Xrotation Yrotation Zrotation
								JOINT LeftForeArm
								{
									OFFSET 29.972298 0.000000 0.000000
									CHANNELS 3 Xrotation Yrotation Zrotation
									JOINT LeftHand
									{
										OFFSET 26.026505 0.000000 0.000000
										CHANNELS 3 Xrotation Yrotation Zrotation
										JOINT LeftHandThumb1
										{
											OFFSET 12.240501 -7.147949 9.207150
											CHANNELS 3 Xrotation Yrotation Zrotation
											JOINT LeftHandThumb2
											{
												OFFSET 4.138618 -2.389435 2.389433
												CHANNELS 3 Xrotation Yrotation Zrotation
												JOINT LeftHandThumb3
												{
													OFFSET 2.726913 -1.574387 1.574386
													CHANNELS 3 Xrotation Yrotation Zrotation
													JOINT LeftHandThumb4
													{
														OFFSET 3.941010 -2.275345 2.275342
														CHANNELS 3 Xrotation Yrotation Zrotation
														End Site
														{
															OFFSET 0.000000 0.000000 0.000000
														}
													}
												}
											}
										}
										JOINT LeftHandIndex1
										{
											OFFSET 24.424698 -1.985611 5.953459
											CHANNELS 3 Xrotation Yrotation Zrotation
											JOINT LeftHandIndex2
											{
												OFFSET 6.426697 0.000000 0.000000
												CHANNELS 3 Xrotation Yrotation Zrotation
												JOINT LeftHandIndex3
												{
													OFFSET 5.337898 0.000000 0.000000
													CHANNELS 3 Xrotation Yrotation Zrotation
													JOINT LeftHandIndex4
													{
														OFFSET 4.409401 0.000000 0.000000
														CHANNELS 3 Xrotation Yrotation Zrotation
														End Site
														{
															OFFSET 0.000000 0.000000 0.000000
														}
													}
												}
											}
										}
										JOINT LeftHandMiddle1
										{
											OFFSET 23.810104 0.000000 0.000000
											CHANNELS 3 Xrotation Yrotation Zrotation
											JOINT LeftHandMiddle2
											{
												OFFSET 7.176498 0.000000 0.000000
												CHANNELS 3 Xrotation Yrotation Zrotation
												JOINT LeftHandMiddle3
												{
													OFFSET 6.774902 0.000000 0.000000
													CHANNELS 3 Xrotation Yrotation Zrotation
													JOINT LeftHandMiddle4
													{
														OFFSET 5.403328 0.000000 0.000000
														CHANNELS 3 Xrotation Yrotation Zrotation
														End Site
														{
															OFFSET 0.000000 0.000000 0.000000
														}
													}
												}
											}
										}
										JOINT LeftHandRing1
										{
											OFFSET 22.908401 -0.839279 -6.020567
											CHANNELS 3 Xrotation Yrotation Zrotation
											JOINT LeftHandRing2
											{
												OFFSET 6.337502 0.000000 0.000000
												CHANNELS 3 Xrotation Yrotation Zrotation
												JOINT LeftHandRing3
												{
													OFFSET 5.779297 0.000000 0.000000
													CHANNELS 3 Xrotation Yrotation Zrotation
													JOINT LeftHandRing4
													{
														OFFSET 4.965698 0.000000 0.000000
														CHANNELS 3 Xrotation Yrotation Zrotation
														End Site
														{
															OFFSET 0.000000 0.000000 0.000000
														}
													}
												}
											}
										}
										JOINT LeftHandPinky1
										{
											OFFSET 20.037003 -1.530319 -10.950146
											CHANNELS 3 Xrotation Yrotation Zrotation
											JOINT LeftHandPinky2
											{
												OFFSET 5.254700 0.000000 0.000000
												CHANNELS 3 Xrotation Yrotation Zrotation
												JOINT LeftHandPinky3
												{
													OFFSET 4.810204 0.000000 0.000000
													CHANNELS 3 Xrotation Yrotation Zrotation
													JOINT LeftHandPinky4
													{
														OFFSET 3.647202 0.000000 0.000000
														CHANNELS 3 Xrotation Yrotation Zrotation
														End Site
														{
															OFFSET 0.000000 0.000000 0.000000
														}
													}
												}
											}
										}
									}
								}
							}
						}
					}
					JOINT RightShoulder
					{
						OFFSET -7.570500 7.247704 -3.868750
						CHANNELS 3 Xrotation Yrotation Zrotation
						JOINT RightShoulder_split
						{
							OFFSET -7.570500 7.247704 -3.868750
							CHANNELS 3 Xrotation Yrotation Zrotation
							JOINT RightArm
							{
								OFFSET -9.308998 -2.777710 0.208500
								CHANNELS 3 Xrotation Yrotation Zrotation
								JOINT RightForeArm
								{
									OFFSET -29.972300 0.000000 0.000000
									CHANNELS 3 Xrotation Yrotation Zrotation
									JOINT RightHand
									{
										OFFSET -26.026505 0.000000 0.000000
										CHANNELS 3 Xrotation Yrotation Zrotation
										JOINT RightHandThumb1
										{
											OFFSET -12.240601 -7.148026 9.207092
											CHANNELS 3 Xrotation Yrotation Zrotation
											JOINT RightHandThumb2
											{
												OFFSET -4.138618 -2.389435 2.389433
												CHANNELS 3 Xrotation Yrotation Zrotation
												JOINT RightHandThumb3
												{
													OFFSET -2.726974 -1.574417 1.574421
													CHANNELS 3 Xrotation Yrotation Zrotation
													JOINT RightHandThumb4
													{
														OFFSET -3.941010 -2.275345 2.275343
														CHANNELS 3 Xrotation Yrotation Zrotation
														End Site
														{
															OFFSET 0.000000 0.000000 0.000000
														}
													}
												}
											}
										}
										JOINT RightHandIndex1
										{
											OFFSET -24.424698 -1.985657 5.953444
											CHANNELS 3 Xrotation Yrotation Zrotation
											JOINT RightHandIndex2
											{
												OFFSET -6.426697 0.000000 0.000000
												CHANNELS 3 Xrotation Yrotation Zrotation
												JOINT RightHandIndex3
												{
													OFFSET -5.337898 0.000000 0.000000
													CHANNELS 3 Xrotation Yrotation Zrotation
													JOINT RightHandIndex4
													{
														OFFSET -4.409401 0.000000 0.000000
														CHANNELS 3 Xrotation Yrotation Zrotation
														End Site
														{
															OFFSET 0.000000 0.000000 0.000000
														}
													}
												}
											}
										}
										JOINT RightHandMiddle1
										{
											OFFSET -23.810097 0.000000 0.000000
											CHANNELS 3 Xrotation Yrotation Zrotation
											JOINT RightHandMiddle2
											{
												OFFSET -7.176498 0.000000 0.000000
												CHANNELS 3 Xrotation Yrotation Zrotation
												JOINT RightHandMiddle3
												{
													OFFSET -6.774902 0.000000 0.000000
													CHANNELS 3 Xrotation Yrotation Zrotation
													JOINT RightHandMiddle4
													{
														OFFSET -5.403328 0.000000 0.000000
														CHANNELS 3 Xrotation Yrotation Zrotation
														End Site
														{
															OFFSET 0.000000 0.000000 0.000000
														}
													}
												}
											}
										}
										JOINT RightHandRing1
										{
											OFFSET -22.908302 -0.839325 -6.020576
											CHANNELS 3 Xrotation Yrotation Zrotation
											JOINT RightHandRing2
											{
												OFFSET -6.337502 0.000000 0.000000
												CHANNELS 3 Xrotation Yrotation Zrotation
												JOINT RightHandRing3
												{
													OFFSET -5.779297 0.000000 0.000000
													CHANNELS 3 Xrotation Yrotation Zrotation
													JOINT RightHandRing4
													{
														OFFSET -4.965698 0.000000 0.000000
														CHANNELS 3 Xrotation Yrotation Zrotation
														End Site
														{
															OFFSET 0.000000 0.000000 0.000000
														}
													}
												}
											}
										}
										JOINT RightHandPinky1
										{
											OFFSET -20.037003 -1.530334 -10.950259
											CHANNELS 3 Xrotation Yrotation Zrotation
											JOINT RightHandPinky2
											{
												OFFSET -5.254700 0.000000 0.000000
												CHANNELS 3 Xrotation Yrotation Zrotation
												JOINT RightHandPinky3
												{
													OFFSET -4.810204 0.000000 0.000000
													CHANNELS 3 Xrotation Yrotation Zrotation
													JOINT RightHandPinky4
													{
														OFFSET -3.647202 0.000000 0.000000
														CHANNELS 3 Xrotation Yrotation Zrotation
														End Site
														{
															OFFSET 0.000000 0.000000 0.000000
														}
													}
												}
											}
										}
									}
								}
							}
						}
					}
				}
			}
		}
	}
	JOINT LeftUpLeg
	{
		OFFSET 15.427100 -6.655098 0.678600
		CHANNELS 3 Xrotation Yrotation Zrotation
		JOINT LeftLeg
		{
			OFFSET 4.081073 -39.591068 13.024000
			CHANNELS 3 Xrotation Yrotation Zrotation
			JOINT LeftFoot
			{
				OFFSET -4.081074 -37.707932 -15.979700
				CHANNELS 3 Xrotation Yrotation Zrotation
				JOINT LeftToeBase
				{
					OFFSET 5.346399 -15.068900 20.645000
					CHANNELS 3 Xrotation Yrotation Zrotation
					JOINT LeftToe_End
					{
						OFFSET 2.754700 0.931300 11.300900
						CHANNELS 3 Xrotation Yrotation Zrotation
						End Site
						{
							OFFSET 0.000000 0.000000 0.000000
						}
					}
				}
			}
		}
	}
	JOINT RightUpLeg
	{
		OFFSET -15.569500 -6.655098 0.678600
		CHANNELS 3 Xrotation Yrotation Zrotation
		JOINT RightLeg
		{
			OFFSET -4.081825 -39.591045 13.023800
			CHANNELS 3 Xrotation Yrotation Zrotation
			JOINT RightFoot
			{
				OFFSET 4.081824 -37.707954 -15.979600
				CHANNELS 3 Xrotation Yrotation Zrotation
				JOINT RightToeBase
				{
					OFFSET -5.346400 -15.068900 20.645000
					CHANNELS 3 Xrotation Yrotation Zrotation
					JOINT RightToe_End
					{
						OFFSET -2.754700 0.931300 11.300900
						CHANNELS 3 Xrotation Yrotation Zrotation
						End Site
						{
							OFFSET 0.000000 0.000000 0.000000
						}
					}
				}
			}
		}
	}
}
MOTION
Frames: 4
Frame Time: 0.016667
17.999756 25.835274 431.295044 45.625623 -48.527401 80.193401 9.883574 -7.960079 -3.752878 20.581462 -10.516338 -0.144610 0.000000 0.000000 0.000000 20.581457 -10.516336 -0.144622 6.882645 9.770580 -6.782363 -14.592957 28.209550 -15.856173 -0.000001 -0.000001 0.000001 0.362243 -5.563731 -21.430629 0.000000 0.000000 0.000000 0.286725 6.219478 -63.452034 -148.351763 -173.569081 -190.299343 39.822199 -0.729478 37.310626 -4.114268 -2.883212 2.590920 3.243733 8.782384 2.381175 -0.000003 0.000011 -0.000004 -0.000001 -0.000002 0.000004 -1.241507 -9.199126 -7.937330 0.088638 0.738666 -16.880085 0.000002 0.000002 0.000004 -0.000001 0.000000 -0.000002 -1.135450 -2.096679 -22.025793 -0.352566 -1.388812 -20.431056 -0.000009 0.000005 0.000007 -0.000002 0.000001 0.000001 -0.604913 6.370756 -33.094288 -0.503186 -2.580185 -29.586098 -0.000001 -0.000003 -0.000001 0.000000 -0.000000 -0.000002 1.054957 14.668661 -34.412337 -0.798119 -5.868233 -45.099947 -0.000001 0.000002 -0.000000 0.000002 0.000001 -0.000003 -0.050561 24.927843 12.864286 0.000000 0.000000 0.000000 -31.840067 -0.829608 -5.819327 -379.939245 5.531944 357.334734 -23.422677 14.855844 -3.043157 -8.673388 4.254489 -11.634309 1.334056 -4.465148 -1.906677 0.000002 -0.000004 -0.000011 -0.000001 -0.000000 -0.000000 -0.335825 9.317627 2.768380 0.227934 -1.535031 12.475393 -0.000000 0.000000 -0.000003 -0.000000 -0.000001 -0.000002 -1.156259 -1.644412 1.983706 -0.068697 0.174115 10.971369 -0.000003 -0.000013 0.000000 0.000002 0.000002 0.000002 1.493759 -11.293067 7.517299 -0.170923 1.898989 13.177002 0.000001 -0.000006 0.000001 0.000001 0.000001 0.000000 2.276083 -19.063002 5.358318 -0.684453 6.522610 19.944093 0.000009 0.000002 0.000011 -0.000001 -0.000001 -0.000002 -67.021914 -10.507343 38.176096 28.553042 -18.147498 -2.170888 3.769190 6.859670 -41.503443 1.360802 8.356241 -13.471641 -0.000000 0.000001 -0.000001 -84.357044 -68.220968 22.059822 117.808387 -35.145025 -41.056486 37.971696 12.564856 43.823590 13.282526 1.929454 14.509081 0.000001 0.000001 -0.000001 
18.057419 27.030647 437.619385 48.256605 -47.693985 78.652511 9.715905 -6.310444 -3.378073 20.001883 -8.523653 -0.281552 0.000000 0.000000 0.000000 20.001881 -8.523664 -0.281553 4.786791 10.382569 -5.045975 -15.958530 27.751234 -13.817707 0.000000 0.000001 -0.000002 0.397081 -5.187125 -22.907256 0.000000 0.000000 0.000000 -0.202604 5.720630 -61.837589 -146.267026 -172.915514 -190.464606 42.708848 -0.958249 34.784439 -4.445392 -3.482517 2.728194 2.927696 8.062631 2.313119 0.000002 0.000014 -0.000008 0.000001 0.000001 -0.000001 -1.336439 -9.878726 -7.883078 0.087940 0.739310 -16.878482 0.000004 0.000005 0.000005 -0.000002 -0.000001 -0.000001 -1.169753 -2.214613 -21.672136 -0.339385 -1.353842 -20.091329 -0.000008 0.000002 0.000005 -0.000003 -0.000000 0.000001 -0.583571 6.403831 -32.534554 -0.486671 -2.550241 -29.022942 -0.000003 0.000001 -0.000000 -0.000001 0.000002 0.000000 1.177310 14.915629 -33.689577 -0.786894 -5.857031 -44.330725 -0.000002 0.000002 0.000001 -0.000003 0.000003 -0.000003 -0.236744 25.773726 13.779230 0.000000 0.000000 0.000000 -31.371431 -4.560763 -1.693869 -384.756768 7.161649 357.547508 -27.510935 12.091525 2.976914 -7.433053 2.682770 -10.818162 1.979910 -5.919493 -2.080318 0.000002 -0.000005 -0.000009 -0.000000 0.000000 0.000003 -0.393905 9.214346 3.477795 0.148237 -1.237766 15.555659 -0.000003 0.000000 -0.000000 -0.000002 -0.000001 0.000000 -1.160006 -1.569479 2.937664 -0.161697 0.560296 15.420960 -0.000002 -0.000011 -0.000003 -0.000000 0.000000 0.000006 1.457509 -10.868859 11.271570 -0.249406 2.199700 16.784292 0.000001 -0.000007 0.000000 0.000001 0.000000 -0.000001 2.263659 -18.388034 10.401815 -0.823574 6.882895 24.954907 0.000009 0.000003 0.000010 0.000000 -0.000000 0.000001 -71.281999 -11.614622 41.293883 29.574487 -17.982805 -3.198152 8.763422 4.774074 -44.557289 0.899411 8.095123 -12.833517 -0.000000 0.000001 0.000000 -97.782593 -59.546019 3.394028 122.433709 -24.937946 -33.832734 39.969242 13.683273 42.394772 14.925048 2.883680 14.128329 -0.000000 0.000001 0.000001 
18.013916 27.838127 444.479279 49.874434 -47.258946 77.033319 9.448388 -4.709265 -3.351049 19.278009 -6.757568 -0.819784 0.000000 0.000000 0.000000 19.278002 -6.757576 -0.819784 2.631876 10.989359 -3.335739 -17.269380 27.297075 -11.811732 -0.000003 0.000000 -0.000001 0.465100 -4.608217 -24.755908 0.000000 0.000000 0.000000 -0.485218 5.159808 -58.615386 -144.010755 -172.188277 -190.600254 45.765706 -1.440280 30.198790 -4.773362 -4.073347 2.858752 2.615705 7.353343 2.242178 -0.000000 0.000013 -0.000002 -0.000000 -0.000001 0.000001 -1.428902 -10.548853 -7.827906 0.087327 0.740307 -16.874295 0.000002 0.000004 0.000005 0.000001 -0.000000 -0.000001 -1.201776 -2.331306 -21.320996 -0.326558 -1.319094 -19.753894 -0.000008 0.000003 0.000006 -0.000000 0.000001 0.000000 -0.562671 6.437001 -31.980298 -0.470589 -2.520378 -28.465307 0.000000 0.000000 -0.000005 -0.000000 0.000001 0.000001 1.292191 15.162477 -32.973401 -0.775888 -5.845666 -43.569999 0.000002 -0.000001 -0.000000 -0.000001 -0.000001 -0.000001 -0.396562 26.079973 14.675676 0.000000 0.000000 0.000000 -30.053488 -9.716189 4.642487 -391.232525 11.814331 359.537961 -30.477899 10.402936 5.041858 -6.133047 1.047353 -9.912466 2.654154 -7.447392 -2.244912 0.000002 -0.000005 -0.000013 -0.000000 -0.000001 0.000002 -0.450107 9.106271 4.214736 0.053984 -0.930984 18.768622 -0.000002 -0.000001 0.000000 0.000001 -0.000000 0.000000 -1.164875 -1.492385 3.920519 -0.288221 0.955473 20.070733 -0.000002 -0.000011 -0.000003 -0.000000 -0.000000 0.000003 1.386754 -10.440779 15.187353 -0.353063 2.507114 20.550989 0.000001 -0.000007 -0.000001 0.000000 -0.000000 -0.000001 2.167641 -17.721315 15.653578 -1.011857 7.240386 30.198657 0.000010 0.000002 0.000010 0.000000 -0.000000 -0.000000 -77.355669 -13.908218 43.432124 35.599369 -17.881259 -5.313672 12.611215 3.114888 -41.837224 0.652581 7.864922 -12.358919 -0.000000 0.000001 0.000000 -102.675379 -47.882686 -8.757678 125.170607 -12.891420 -27.083107 42.407138 14.676156 41.134674 16.349065 3.812078 14.077339 0.000000 -0.000001 -0.000001 
17.969055 28.300629 451.487305 50.033410 -47.551289 75.055610 9.180840 -2.994438 -3.579111 18.588292 -5.258769 -1.680251 0.000000 0.000000 0.000000 18.588303 -5.258755 -1.680268 0.571273 11.532738 -1.744106 -18.427326 26.870565 -9.953108 0.000002 0.000000 0.000002 0.565333 -3.855099 -26.469862 0.000000 0.000000 0.000000 -0.377995 4.639002 -53.992379 -141.899557 -171.460834 -190.722979 48.339960 -2.166192 23.977628 -5.095733 -4.651565 2.981488 2.310052 6.659716 2.169123 -0.000002 0.000012 -0.000004 0.000000 0.000003 -0.000003 -1.518675 -11.204953 -7.773430 0.086792 0.741572 -16.868783 0.000002 0.000005 0.000004 0.000000 -0.000001 0.000000 -1.231398 -2.446059 -20.976300 -0.314208 -1.284946 -19.422592 -0.000011 0.000001 0.000005 -0.000000 -0.000001 -0.000001 -0.542356 6.469912 -31.437001 -0.455121 -2.490894 -27.918719 -0.000002 0.000001 0.000001 -0.000000 -0.000000 -0.000000 1.399143 15.407064 -32.270793 -0.765233 -5.834286 -42.824866 0.000002 -0.000001 -0.000001 -0.000001 -0.000001 -0.000002 -0.494408 25.605336 15.379837 0.000000 0.000000 0.000000 -27.617735 -15.476804 13.095677 -397.951300 18.998074 362.816097 -31.421534 9.986916 3.015513 -4.886143 -0.502112 -8.999055 3.296531 -8.910274 -2.385472 0.000003 -0.000004 -0.000013 0.000001 0.000000 -0.000001 -0.500777 9.004460 4.908682 -0.045891 -0.643392 21.813369 -0.000001 -0.000001 -0.000003 -0.000000 0.000000 -0.000003 -1.170229 -1.421038 4.831208 -0.435751 1.321396 24.491204 -0.000001 -0.000012 -0.000001 0.000000 0.000000 0.000000 1.289288 -10.051206 18.899806 -0.471401 2.791346 24.127254 0.000001 -0.000008 -0.000000 -0.000001 -0.000000 0.000000 2.001307 -17.132447 20.631051 -1.228858 7.557134 35.191378 0.000009 0.000002 0.000009 0.000001 0.000000 -0.000001 -84.023908 -16.255131 44.067291 43.676748 -17.683090 -7.441725 15.773364 1.693193 -37.985581 0.477606 7.517266 -11.745976 0.000000 0.000001 -0.000000 -102.378559 -37.089775 -18.145946 126.336739 -1.912453 -22.263210 44.460440 15.434952 40.416675 16.348572 3.794109 15.974639 -0.000000 0.000002 0.000002 
